The Man Who Fell To Earth (1976) The Criterion Collection, (Out of Print)

Director: Nicolas Roeg

The Man Who Fell to Earth is a daring exploration of science fiction as an art form. The story of an alien on an elaborate rescue mission provides the launching pad for Nicolas Roeg’s visual tour de force, a formally adventurous examination of alienation in contemporary life. Rock legend David Bowie, in his acting debut, completely embodies the title role, while Candy Clark, Buck Henry, and Rip Torn turn in pitch-perfect supporting performances. The film’s hallucinatory vision was obscured in the American theatrical release, which deleted nearly twenty minutes of crucial scenes and details. The Criterion Collection is proud to present Roeg’s full uncut version, in this exclusive new director approved high definition widescreen transfer.

On July 6, 1975 filming began. The film's production had been scheduled to last eleven weeks. Throughout the eleven weeks, the film crew ran into some obstacles. One day, Bowie noticed Some gold liquid swimming around in shiny swirls inside the glass of milk he was drinking and for the next two days of production Bowie was sick. On top of that, equipment was malfunctioning and run-ins with locals occurred.

The film was primarily shot in New Mexico. Filming locations include Albuquerque, White Sands, Artesia, and Fenton Lake.

Media Info:
General
Complete name                    : J:\Seeding\The Man Who Fell To Earth (1976)[DVDRip][Big_dad_e]\The Man Who Fell To Earth (1976)[DVDRip][Big_dad_e].avi
Format                           : AVI
Format/Info                      : Audio Video Interleave
File size                        : 1.30 GiB
Duration                         : 2h 19mn
Overall bit rate                 : 1 342 Kbps

Video
ID                               : 0
Format                           : MPEG-4 Visual
Format profile                   : Simple@L1
Format settings, BVOP            : No
Format settings, QPel            : No
Format settings, GMC             : No warppoints
Format settings, Matrix          : Default (H.263)
Codec ID                         : DIVX
Codec ID/Info                    : Project Mayo
Codec ID/Hint                    : DivX 4
Duration                         : 2h 19mn
Bit rate                         : 1 200 Kbps
Width                            : 720 pixels
Height                           : 480 pixels
Display aspect ratio             : 16:9
Frame rate                       : 29.970 fps
Standard                         : NTSC
Color space                      : YUV
Chroma subsampling               : 4:2:0
Bit depth                        : 8 bits
Scan type                        : Progressive
Bits/(Pixel*Frame)               : 0.116
Stream size                      : 1.17 GiB (89%)
Writing library                  : avc2.0.11.1110

Audio
ID                               : 1
Format                           : MPEG Audio
Format version                   : Version 1
Format profile                   : Layer 3
Mode                             : Joint stereo
Mode extension                   : MS Stereo
Codec ID                         : 55
Codec ID/Hint                    : MP3
Duration                         : 2h 19mn
Bit rate mode                    : Constant
Bit rate                         : 128 Kbps
Channel(s)                       : 2 channels
Sampling rate                    : 48.0 KHz
Stream size                      : 127 MiB (10%)
Alignment                        : Aligned on interleaves
Interleave, duration             : 24 ms (0.72 video frame)
Writing library                  : LAME3.96.1

File Scan:
Malwarebytes' Anti-Malware 1.46
www.malwarebytes.org

Database version: 5096

Windows 5.1.2600 Service Pack 3
Internet Explorer 8.0.6001.18702

11/11/2010 8:19:45 PM
mbam-log-2010-11-11 (20-19-45).txt

Scan type: Quick scan
Objects scanned: 6
Time elapsed: 10 second(s)

Memory Processes Infected: 0
Memory Modules Infected: 0
Registry Keys Infected: 0
Registry Values Infected: 0
Registry Data Items Infected: 0
Folders Infected: 0
Files Infected: 0

Memory Processes Infected:
(No malicious items detected)

Memory Modules Infected:
(No malicious items detected)

Registry Keys Infected:
(No malicious items detected)

Registry Values Infected:
(No malicious items detected)

Registry Data Items Infected:
(No malicious items detected)

Folders Infected:
(No malicious items detected)

Files Infected:
(No malicious items detected)

When using TPB please read these important notes:
  
01- Anti-malware apps may warn about keygens, patches, cracks, etc., because of 
    their capabilities, (generating codes, etc.). Sometimes they're added to 
    the virus/spyware database and will be detected as malware. If you don't trust
    the keygens, patches, cracks, etc., don't use them. 
    
02- Before running .exe-files, keygens, patches, cracks, etc., always check first 
    if they can be unpacked. Often some third party added a virus to the 
    original file, repacked it and uploaded it again.

03- Letting anti-malware apps send scan results to their companies can cause
    keygens, patches, cracks, etc., to be added to their virus-database.

04- Firewalls which are set to automatically determine connections will allow 
    apps & malware!. Avoid this by manually configuring your firewall.

05- Usually (new) torrents with many downloads and seeders in a brief period is
    suspicious! Torrents with the Skull & Crossbones icon are trusted.

06- Some people use multiple accounts and post fake comments 
    and/or files trying to spread confusion. They seldom seriously
    comment or have any torrents, or a just a few to look passable.

07- Clicking on unknown links can cause malware to be installed on your machine.
  
08- In general often there are more fake and negative comments than reliable and
    positive comments.

09- In some countries uploading/downloading copyright protected material is 
    forbidden, but showing some appreciation to reliable up-loaders is not.

10- Posting fake and negative comments or fake/infected uploads on TPB can result
    in getting banned from TPB!

Requests?  Find me on SuprBay.
 

For reporting bad or suspicious torrents:  
http://forum.suprbay.org/forumdisplay.php?fid=29

For more of my torrents: 
https://thepiratebay.org/user/big_dad_e/  (Secured)

All torrents scanned with:
Norton Anti-virus
Malwarebytes' Anti-malware
 
http://www.pirate-party.us/

ALWAYS SEED & THANKS SEEDERS!